<svg xmlns="http://www.w3.org/2000/svg"
     xmlns:xlink="http://www.w3.org/1999/xlink"
     viewBox="0 0 9000 2200"
     preserveAspectRatio="xMinYMid meet">

  <defs>
    <symbol id="dawfont-inter-black__safe__10-uc-H__u0048" viewBox="0 0 1347 1502">
      <path d="M6.0 1496.0V6.0H417.0V567.0H931.0V6.0H1341.0V1496.0H931.0V907.0H417.0V1496.0Z"/>
    </symbol>

    <symbol id="dawfont-inter-black__safe__10-uc-E__u0045" viewBox="0 0 1131 1502">
      <path d="M6.0 1496.0V6.0H1125.0V346.0H417.0V583.0H1068.0V913.0H417.0V1156.0H1123.0V1496.0Z"/>
    </symbol>

    <symbol id="dawfont-inter-black__safe__20-lc-e__u0065" viewBox="0 0 1125 1524">
      <path d="M574.0 1518.0Q403.0 1518.0 275.0 1448.5Q147.0 1379.0 76.5 1252.0Q6.0 1125.0 6.0 956.0Q6.0 789.0 76.5 662.0Q147.0 535.0 272.5 464.0Q398.0 393.0 565.0 393.0Q689.0 393.0 790.5 432.5Q892.0 472.0 966.0 545.5Q1040.0 619.0 1079.5 721.0Q1119.0 823.0 1119.0 949.0V1049.0H127.0V827.0H935.0L749.0 869.0Q749.0 807.0 728.5 764.5Q708.0 722.0 669.0 699.5Q630.0 677.0 573.0 677.0Q516.0 677.0 477.0 699.5Q438.0 722.0 417.5 764.5Q397.0 807.0 397.0 869.0V1038.0Q397.0 1103.0 420.0 1148.0Q443.0 1193.0 485.5 1215.5Q528.0 1238.0 586.0 1238.0Q628.0 1238.0 662.0 1227.0Q696.0 1216.0 720.0 1195.0Q744.0 1174.0 756.0 1145.0L1110.0 1168.0Q1087.0 1272.0 1013.0 1351.0Q939.0 1430.0 827.0 1474.0Q715.0 1518.0 574.0 1518.0Z"/>
    </symbol>

    <symbol id="dawfont-inter-black__safe__20-lc-x__u0078" viewBox="0 0 1191 1502">
      <path d="M6.0 1496.0 424.0 833.0 419.0 1045.0 31.0 412.0H455.0L513.0 529.0Q553.0 609.0 588.0 686.5Q623.0 764.0 656.0 839.0H541.0Q577.0 764.0 612.5 686.5Q648.0 609.0 691.0 529.0L753.0 412.0H1170.0L767.0 1044.0L773.0 833.0L1185.0 1496.0H761.0L692.0 1364.0Q650.0 1285.0 614.0 1208.0Q578.0 1131.0 542.0 1057.0H644.0Q609.0 1131.0 573.5 1208.0Q538.0 1285.0 496.0 1364.0L427.0 1496.0Z"/>
    </symbol>

    <symbol id="dawfont-inter-black__safe__20-lc-p__u0070" viewBox="0 0 1165 1920">
      <path d="M6.0 1914.0V412.0H403.0V573.0H410.0Q437.0 519.0 479.5 478.5Q522.0 438.0 580.5 415.5Q639.0 393.0 714.0 393.0Q837.0 393.0 937.5 458.0Q1038.0 523.0 1098.5 648.0Q1159.0 773.0 1159.0 954.0Q1159.0 1133.0 1100.5 1258.5Q1042.0 1384.0 941.0 1450.0Q840.0 1516.0 710.0 1516.0Q636.0 1516.0 577.5 1492.5Q519.0 1469.0 477.0 1427.0Q435.0 1385.0 412.0 1328.0H407.0V1914.0ZM578.0 1204.0Q633.0 1204.0 671.5 1173.5Q710.0 1143.0 730.0 1087.0Q750.0 1031.0 750.0 954.0Q750.0 876.0 730.0 820.0Q710.0 764.0 671.5 733.5Q633.0 703.0 578.0 703.0Q523.0 703.0 482.0 733.5Q441.0 764.0 418.0 820.0Q395.0 876.0 395.0 954.0Q395.0 1030.0 418.0 1086.5Q441.0 1143.0 482.0 1173.5Q523.0 1204.0 578.0 1204.0Z"/>
    </symbol>

    <symbol id="dawfont-inter-black__safe__20-lc-y__u0079" viewBox="0 0 1256 1924">
      <path d="M119.0 1901.0 158.0 1605.0 270.0 1611.0Q320.0 1618.0 352.5 1610.0Q385.0 1602.0 400.5 1579.0Q416.0 1556.0 417.0 1520.0L415.0 1496.0L6.0 412.0H425.0L563.0 888.0Q595.0 999.0 618.5 1111.0Q642.0 1223.0 669.0 1345.0H573.0Q599.0 1223.0 626.5 1110.0Q654.0 997.0 688.0 888.0L836.0 412.0H1250.0L797.0 1616.0Q761.0 1713.0 708.0 1780.5Q655.0 1848.0 576.0 1883.0Q497.0 1918.0 382.0 1918.0Q314.0 1918.0 245.5 1913.5Q177.0 1909.0 119.0 1901.0Z"/>
    </symbol>
  </defs>

  <!-- Baseline -->
  <line x1="200" y1="1496" x2="8800" y2="1496" stroke="#777" stroke-width="18"/>

    <!-- Glyph instances (IDs now match) -->
  <use href="#dawfont-inter-black__safe__10-uc-H__u0048" x="300"  y="0" width="1347" height="1502"/>
  <use href="#dawfont-inter-black__safe__10-uc-E__u0045" x="1867" y="0" width="1131" height="1502"/>
  <use href="#dawfont-inter-black__safe__20-lc-e__u0065" x="3218" y="0" width="1125" height="1524"/>
  <use href="#dawfont-inter-black__safe__20-lc-x__u0078" x="4563" y="0" width="1191" height="1502"/>
  <use href="#dawfont-inter-black__safe__20-lc-p__u0070" x="5974" y="0" width="1165" height="1920"/>
  <use href="#dawfont-inter-black__safe__20-lc-y__u0079" x="7359" y="0" width="1256" height="1924"/>

</svg>