<?xml version="1.0" encoding="UTF-8"?>
<!DOCTYPE svg PUBLIC "-//W3C//DTD SVG 1.1//EN"
  "http://www.w3.org/Graphics/SVG/1.1/DTD/svg11.dtd">
<svg xmlns="http://www.w3.org/2000/svg"
     width="310.03" height="92"
     viewBox="0 0 310.03 92">

<metadata><![CDATA[
**********************************
CONFIDENTIAL / PROPRIETARY NOTICE:
**********************************
DATE CREATED: 02/07/2026

Purpose: DAWSON creative labs wordmark baked to PATH geometry (drop version).
No preview wrapper, no border, no nested SVG. Asset viewBox is canonical.
**********************************
]]></metadata>

<!-- =============================== -->
<!-- DROP VERSION: PATHS ONLY ASSET  -->
<!-- =============================== -->
<g id="dawson_wordmark__inter-black__safe-p6__DAWSON_creative_labs_Omark__pathsOnly__v001"
   fill="#000">

  <!-- ===================== -->
  <!-- DAWSON (Inter Black) -->
  <!-- ===================== -->

  <!-- D -->
  <path d="M585.0 1496.0H177.0V1152.0H566.0Q683.0 1152.0 761.5 1112.5Q840.0 1073.0 879.5 984.5Q919.0 896.0 919.0 752.0Q919.0 607.0 878.5 518.5Q838.0 430.0 757.0 390.0Q676.0 350.0 554.0 350.0H171.0V6.0H579.0Q809.0 6.0 978.0 97.0Q1147.0 188.0 1239.5 355.0Q1332.0 522.0 1332.0 752.0Q1332.0 981.0 1240.5 1148.0Q1149.0 1315.0 981.0 1405.5Q813.0 1496.0 585.0 1496.0ZM417.0 6.0V1496.0H6.0V6.0Z"
        transform="translate(0,0) scale(0.035,0.035)"/>

  <!-- A -->
  <path d="M6.0 1496.0 499.0 6.0H1055.0L1559.0 1496.0H1095.0L925.0 918.0Q870.0 730.0 820.0 538.0Q770.0 346.0 724.0 147.0H827.0Q781.0 346.0 733.0 538.0Q685.0 730.0 630.0 918.0L460.0 1496.0ZM373.0 1233.0V921.0H1193.0V1233.0Z"
        transform="translate(43.5,0) scale(0.03498402555910543,0.035)"/>

  <!-- W -->
  <path d="M401.0 1496.0 6.0 6.0H458.0L577.0 584.0Q600.0 693.0 619.5 811.5Q639.0 930.0 657.5 1048.0Q676.0 1166.0 694.0 1276.0H605.0Q626.0 1166.0 646.0 1048.0Q666.0 930.0 687.5 811.5Q709.0 693.0 734.0 584.0L866.0 6.0H1270.0L1402.0 584.0Q1427.0 693.0 1449.0 811.5Q1471.0 930.0 1491.0 1048.0Q1511.0 1166.0 1532.0 1276.0H1442.0Q1461.0 1166.0 1479.0 1048.0Q1497.0 930.0 1516.5 811.5Q1536.0 693.0 1558.0 584.0L1678.0 6.0H2130.0L1735.0 1496.0H1278.0L1119.0 844.0Q1091.0 730.0 1068.5 584.5Q1046.0 439.0 1011.0 271.0H1126.0Q1088.0 439.0 1067.5 584.0Q1047.0 729.0 1019.0 844.0L858.0 1496.0Z"
        transform="translate(89,1) scale(0.97,1) scale(0.035,0.035)"/>

  <!-- S -->
  <path d="M648.0 1539.0Q447.0 1539.0 303.5 1480.5Q160.0 1422.0 83.5 1303.5Q7.0 1185.0 6.0 1010.0H395.0Q399.0 1073.0 430.0 1118.0Q461.0 1163.0 516.5 1186.5Q572.0 1210.0 648.0 1210.0Q714.0 1210.0 760.5 1193.5Q807.0 1177.0 832.5 1148.0Q858.0 1119.0 858.0 1081.0Q858.0 1046.0 834.0 1019.5Q810.0 993.0 758.0 972.5Q706.0 952.0 623.0 936.0L474.0 906.0Q266.0 864.0 152.5 757.5Q39.0 651.0 39.0 481.0Q39.0 339.0 116.0 232.0Q193.0 125.0 329.0 65.5Q465.0 6.0 645.0 6.0Q828.0 6.0 961.0 65.5Q1094.0 125.0 1167.0 235.5Q1240.0 346.0 1243.0 497.0H859.0Q852.0 422.0 798.0 379.0Q744.0 336.0 649.0 336.0Q589.0 336.0 546.5 351.5Q504.0 367.0 481.5 394.5Q459.0 422.0 459.0 457.0Q459.0 493.0 480.5 518.5Q502.0 544.0 549.5 563.0Q597.0 582.0 671.0 597.0L792.0 620.0Q917.0 645.0 1008.0 685.0Q1099.0 725.0 1157.0 780.0Q1215.0 835.0 1242.0 905.5Q1269.0 976.0 1269.0 1064.0Q1269.0 1216.0 1195.5 1322.0Q1122.0 1428.0 983.0 1483.5Q844.0 1539.0 648.0 1539.0Z"
        transform="translate(160.8,0) scale(0.035,0.035)"/>

  <!-- O-mark (stroke only) -->
  <g transform="translate(215.5,10) translate(17,17) scale(0.90) translate(-17,-17)"
     fill="none" stroke="#000" stroke-width="3" stroke-linejoin="miter">
    <path d="M2 0H32a2 2 0 0 1 2 2V32a2 2 0 0 1-2 2H2a2 2 0 0 1-2-2V2a2 2 0 0 1 2-2Z"/>
    <path d="M2 0H32a2 2 0 0 1 2 2V32a2 2 0 0 1-2 2H2a2 2 0 0 1-2-2V2a2 2 0 0 1 2-2Z"
          transform="rotate(45 17 17)"/>
  </g>

  <!-- N -->
  <path d="M6.0 1496.0V6.0H437.0L797.0 591.0Q830.0 646.0 868.5 716.0Q907.0 786.0 946.0 868.5Q985.0 951.0 1022.0 1042.0L978.0 1106.0Q973.0 1025.0 968.0 920.5Q963.0 816.0 959.5 716.0Q956.0 616.0 956.0 552.0V6.0H1372.0V1496.0H941.0L606.0 952.0Q564.0 883.0 520.5 805.0Q477.0 727.0 431.5 634.5Q386.0 542.0 335.0 436.0L399.0 422.0Q407.0 527.0 412.5 629.5Q418.0 732.0 420.0 816.0Q422.0 900.0 422.0 952.0V1496.0Z"
        transform="translate(261.8,0) scale(0.035,0.035)"/>

  <!-- ===================================== -->
  <!-- creative labs (Inter SemiBold, lower) -->
  <!-- ===================================== -->
  <g transform="translate(0,66) scale(0.44)">

    <!-- creative -->
    <path d="M531.0 1519.0Q373.0 1519.0 255.0 1448.0Q137.0 1377.0 71.5 1250.5Q6.0 1124.0 6.0 957.0Q6.0 790.0 71.5 662.5Q137.0 535.0 255.0 464.0Q373.0 393.0 531.0 393.0Q627.0 393.0 709.5 420.0Q792.0 447.0 855.0 497.0Q918.0 547.0 958.0 617.0Q998.0 687.0 1011.0 772.0L765.0 795.0Q757.0 752.0 737.5 717.0Q718.0 682.0 688.5 656.5Q659.0 631.0 620.0 617.0Q581.0 603.0 533.0 603.0Q447.0 603.0 387.5 648.0Q328.0 693.0 297.0 772.5Q266.0 852.0 266.0 957.0Q266.0 1061.0 297.0 1140.0Q328.0 1219.0 387.5 1264.0Q447.0 1309.0 533.0 1309.0Q582.0 1309.0 621.0 1295.0Q660.0 1281.0 689.0 1255.5Q718.0 1230.0 737.5 1193.5Q757.0 1157.0 766.0 1113.0L1012.0 1136.0Q1001.0 1221.0 961.0 1291.5Q921.0 1362.0 857.5 1413.0Q794.0 1464.0 711.0 1491.5Q628.0 1519.0 531.0 1519.0Z"
          transform="translate(0,0) scale(0.035,0.035)"/>

    <path d="M6.0 1496.0V412.0H253.0V593.0H261.0Q290.0 499.0 358.0 449.5Q426.0 400.0 526.0 400.0Q549.0 400.0 573.0 401.5Q597.0 403.0 613.0 406.0V636.0Q599.0 633.0 564.0 629.5Q529.0 626.0 493.0 626.0Q428.0 626.0 375.5 655.0Q323.0 684.0 292.5 738.5Q262.0 793.0 262.0 871.0V1496.0Z"
          transform="translate(60.36,0) scale(0.035,0.035)"/>

    <path d="M534.0 1519.0Q371.0 1519.0 252.5 1448.5Q134.0 1378.0 70.0 1251.5Q6.0 1125.0 6.0 958.0Q6.0 792.0 71.0 664.5Q136.0 537.0 251.5 465.0Q367.0 393.0 520.0 393.0Q630.0 393.0 722.5 430.0Q815.0 467.0 884.0 538.0Q953.0 609.0 991.0 712.5Q1029.0 816.0 1029.0 949.0V1023.0H116.0V848.0H901.0L785.0 897.0Q785.0 805.0 754.0 737.5Q723.0 670.0 664.5 632.5Q606.0 595.0 523.0 595.0Q441.0 595.0 381.5 632.5Q322.0 670.0 290.0 736.5Q258.0 803.0 258.0 889.0V1004.0Q258.0 1102.0 292.0 1172.5Q326.0 1243.0 389.0 1280.5Q452.0 1318.0 539.0 1318.0Q599.0 1318.0 647.0 1300.5Q695.0 1283.0 728.0 1249.5Q761.0 1216.0 777.0 1170.0L1014.0 1192.0Q992.0 1289.0 925.0 1363.0Q858.0 1437.0 758.0 1478.0Q658.0 1519.0 534.0 1519.0Z"
          transform="translate(102.7,0) scale(0.035,0.035)"/>

    <path d="M376.0 1516.0Q270.0 1516.0 186.5 1479.0Q103.0 1442.0 54.5 1369.5Q6.0 1297.0 6.0 1190.0Q6.0 1098.0 40.5 1038.0Q75.0 978.0 134.5 942.0Q194.0 906.0 269.5 887.5Q345.0 869.0 426.0 860.0Q524.0 849.0 583.0 841.0Q642.0 833.0 668.5 815.5Q695.0 798.0 695.0 761.0V755.0Q695.0 705.0 672.0 668.5Q649.0 632.0 606.0 612.0Q563.0 592.0 501.0 592.0Q438.0 592.0 391.0 612.0Q344.0 632.0 315.5 665.5Q287.0 699.0 279.0 740.0L37.0 718.0Q55.0 616.0 117.5 543.5Q180.0 471.0 278.5 432.5Q377.0 394.0 503.0 394.0Q596.0 394.0 676.5 416.5Q757.0 439.0 818.5 484.0Q880.0 529.0 914.5 598.5Q949.0 668.0 949.0 764.0V1496.0H701.0V1345.0H694.0Q669.0 1392.0 627.5 1431.0Q586.0 1470.0 524.0 1493.0Q462.0 1516.0 376.0 1516.0ZM440.0 1326.0Q521.0 1326.0 578.5 1295.5Q636.0 1265.0 666.0 1213.5Q696.0 1162.0 696.0 1101.0V978.0Q684.0 987.0 658.0 995.0Q632.0 1003.0 597.5 1009.5Q563.0 1016.0 526.5 1021.5Q490.0 1027.0 457.0 1032.0Q401.0 1039.0 355.0 1057.0Q309.0 1075.0 282.0 1106.5Q255.0 1138.0 255.0 1187.0Q255.0 1232.0 278.0 1263.0Q301.0 1294.0 343.0 1310.0Q385.0 1326.0 440.0 1326.0Z"
          transform="translate(165.67,0) scale(0.035,0.035)"/>

    <path d="M651.0 412.0V616.0H6.0V412.0ZM179.0 134.0H435.0V1188.0Q435.0 1246.0 459.5 1271.0Q484.0 1296.0 544.0 1296.0Q566.0 1296.0 596.5 1294.0Q627.0 1292.0 646.0 1290.0L665.0 1492.0Q631.0 1498.0 587.5 1500.5Q544.0 1503.0 503.0 1503.0Q341.0 1503.0 260.0 1431.0Q179.0 1359.0 179.0 1218.0Z"
          transform="translate(226.82,0) scale(0.035,0.035)"/>

    <path d="M29.0 1533.0V449.0H285.0V1533.0ZM157.0 292.0Q93.0 292.0 49.5 250.5Q6.0 209.0 6.0 149.0Q6.0 88.0 49.5 47.0Q93.0 6.0 157.0 6.0Q221.0 6.0 264.5 47.0Q308.0 88.0 308.0 149.0Q308.0 209.0 264.0 250.5Q220.0 292.0 157.0 292.0Z"
          transform="translate(280.99,0) scale(0.035,0.035)"/>

    <path d="M412.0 1496.0 6.0 412.0H278.0L476.0 988.0Q509.0 1084.0 535.0 1181.0Q561.0 1278.0 588.0 1376.0H526.0Q552.0 1278.0 578.0 1181.5Q604.0 1085.0 636.0 988.0L831.0 412.0H1101.0L694.0 1496.0Z"
          transform="translate(318.61,0) scale(0.035,0.035)"/>

    <path d="M534.0 1519.0Q371.0 1519.0 252.5 1448.5Q134.0 1378.0 70.0 1251.5Q6.0 1125.0 6.0 958.0Q6.0 792.0 71.0 664.5Q136.0 537.0 251.5 465.0Q367.0 393.0 520.0 393.0Q630.0 393.0 722.5 430.0Q815.0 467.0 884.0 538.0Q953.0 609.0 991.0 712.5Q1029.0 816.0 1029.0 949.0V1023.0H116.0V848.0H901.0L785.0 897.0Q785.0 805.0 754.0 737.5Q723.0 670.0 664.5 632.5Q606.0 595.0 523.0 595.0Q441.0 595.0 381.5 632.5Q322.0 670.0 290.0 736.5Q258.0 803.0 258.0 889.0V1004.0Q258.0 1102.0 292.0 1172.5Q326.0 1243.0 389.0 1280.5Q452.0 1318.0 539.0 1318.0Q599.0 1318.0 647.0 1300.5Q695.0 1283.0 728.0 1249.5Q761.0 1216.0 777.0 1170.0L1014.0 1192.0Q992.0 1289.0 925.0 1363.0Q858.0 1437.0 758.0 1478.0Q658.0 1519.0 534.0 1519.0Z"
          transform="translate(380.1,0) scale(0.035,0.035)"/>

    <!-- labs -->
    <path d="M262.0 6.0V1496.0H6.0V6.0Z"
          transform="translate(493.07,0) scale(0.035,0.035)"/>

    <path d="M376.0 1516.0Q270.0 1516.0 186.5 1479.0Q103.0 1442.0 54.5 1369.5Q6.0 1297.0 6.0 1190.0Q6.0 1098.0 40.5 1038.0Q75.0 978.0 134.5 942.0Q194.0 906.0 269.5 887.5Q345.0 869.0 426.0 860.0Q524.0 849.0 583.0 841.0Q642.0 833.0 668.5 815.5Q695.0 798.0 695.0 761.0V755.0Q695.0 705.0 672.0 668.5Q649.0 632.0 606.0 612.0Q563.0 592.0 501.0 592.0Q438.0 592.0 391.0 612.0Q344.0 632.0 315.5 665.5Q287.0 699.0 279.0 740.0L37.0 718.0Q55.0 616.0 117.5 543.5Q180.0 471.0 278.5 432.5Q377.0 394.0 503.0 394.0Q596.0 394.0 676.5 416.5Q757.0 439.0 818.5 484.0Q880.0 529.0 914.5 598.5Q949.0 668.0 949.0 764.0V1496.0H701.0V1345.0H694.0Q669.0 1392.0 627.5 1431.0Q586.0 1470.0 524.0 1493.0Q462.0 1516.0 376.0 1516.0ZM440.0 1326.0Q521.0 1326.0 578.5 1295.5Q636.0 1265.0 666.0 1213.5Q696.0 1162.0 696.0 1101.0V978.0Q684.0 987.0 658.0 995.0Q632.0 1003.0 597.5 1009.5Q563.0 1016.0 526.5 1021.5Q490.0 1027.0 457.0 1032.0Q401.0 1039.0 355.0 1057.0Q309.0 1075.0 282.0 1106.5Q255.0 1138.0 255.0 1187.0Q255.0 1232.0 278.0 1263.0Q301.0 1294.0 343.0 1310.0Q385.0 1326.0 440.0 1326.0Z"
          transform="translate(536.07,0) scale(0.035,0.035)"/>

    <path d="M586.0 1517.0Q505.0 1517.0 443.0 1491.5Q381.0 1466.0 337.0 1423.0Q293.0 1380.0 266.0 1328.0H258.0V1496.0H6.0V6.0H262.0V578.0H268.0Q296.0 528.0 339.0 486.5Q382.0 445.0 443.5 419.5Q505.0 394.0 587.0 394.0Q720.0 394.0 823.0 462.0Q926.0 530.0 985.5 656.0Q1045.0 782.0 1045.0 955.0Q1045.0 1128.0 986.5 1254.0Q928.0 1380.0 825.0 1448.5Q722.0 1517.0 586.0 1517.0ZM521.0 1305.0Q604.0 1305.0 662.5 1262.0Q721.0 1219.0 752.5 1140.0Q784.0 1061.0 784.0 954.0Q784.0 847.0 752.5 769.0Q721.0 691.0 662.5 648.5Q604.0 606.0 521.0 606.0Q438.0 606.0 377.5 649.0Q317.0 692.0 284.5 770.0Q252.0 848.0 252.0 954.0Q252.0 1059.0 284.5 1138.0Q317.0 1217.0 377.5 1261.0Q438.0 1305.0 521.0 1305.0Z"
          transform="translate(603.22,0) scale(0.035,0.035)"/>

    <path d="M475.0 1520.0Q346.0 1520.0 245.5 1481.0Q145.0 1442.0 82.5 1367.0Q20.0 1292.0 6.0 1184.0L253.0 1164.0Q268.0 1243.0 324.0 1284.5Q380.0 1326.0 474.0 1326.0Q568.0 1326.0 622.0 1289.0Q676.0 1252.0 676.0 1196.0Q676.0 1148.0 638.0 1117.5Q600.0 1087.0 529.0 1072.0L344.0 1033.0Q190.0 1001.0 111.5 923.5Q33.0 846.0 33.0 725.0Q33.0 625.0 87.5 550.5Q142.0 476.0 240.5 434.5Q339.0 393.0 470.0 393.0Q598.0 393.0 692.5 433.0Q787.0 473.0 843.0 545.5Q899.0 618.0 911.0 717.0L676.0 737.0Q667.0 672.0 615.0 628.5Q563.0 585.0 475.0 585.0Q392.0 585.0 340.5 621.5Q289.0 658.0 289.0 713.0Q289.0 761.0 326.0 792.0Q363.0 823.0 438.0 839.0L628.0 879.0Q786.0 912.0 861.5 984.5Q937.0 1057.0 937.0 1174.0Q937.0 1279.0 878.0 1356.5Q819.0 1434.0 714.5 1477.0Q610.0 1520.0 475.0 1520.0Z"
          transform="translate(669.73,0) scale(0.035,0.035)"/>

  </g>
</g>
</svg>