<?xml version="1.0" encoding="UTF-8"?>
<svg xmlns="http://www.w3.org/2000/svg" width="375" height="397" viewBox="0 0 375 397">
<defs>
      <symbol id="dawfont-inter-black__safe__10-uc-H__u0048" viewBox="0 0 1347 1502"><path d="M6.0 1496.0V6.0H417.0V567.0H931.0V6.0H1341.0V1496.0H931.0V907.0H417.0V1496.0Z"/></symbol>
      <g id="xhair_big">
      <!-- long arms that can bleed outside via negative coords -->
      <line x1="-40" y1="0" x2="40" y2="0" stroke="#E85C3A" stroke-width="3"/>
      <line x1="0" y1="-40" x2="0" y2="40" stroke="#E85C3A" stroke-width="3"/>
      <circle cx="0" cy="0" r="15" fill="none" stroke="#E85C3A" stroke-width="3"/>
      <circle cx="0" cy="0" r="3" fill="#E85C3A"/>
    </g>
    <style>
      #page { font-family: Poppins, system-ui, -apple-system, Segoe UI, Roboto, Arial, sans-serif; }
      .pill { fill:#fff; stroke:#111; stroke-width:2; }
      .txt { fill:#111; font-size:14px; font-weight:500; }
      .h1 { fill:#111; font-size:22px; font-weight:700; }
      .h2 { fill:#111; font-size:18px; font-weight:600; }
    </style>
    </defs>
      <g id="page" transform="translate(42,45)">
        <g transform="translate(15,-40)">
          <rect x="0" y="0" width="60" height="30" fill="#FFFFFF" stroke="#000" stroke-width="3" rx="5" ry="5"/>
          <text class="txt h2" x="7" y="21">(0,0)</text>
        </g>
        <rect x="-2" y="-2" width="313.81" height="349.46" fill="#FFFFFF" stroke="#000" stroke-width="5"/>
        <use href="#dawfont-inter-black__safe__10-uc-H__u0048" x="0" y="0" width="309.81" height="345.46" fill="#000"/>
        <rect x="-3" y="273" width="75" height="75" stroke="#FFF" fill="none" stroke-width="3" stroke-dasharray="15 8"/>
        <!-- connector line (from window to inset) -->
        <line x1="70" y1="275" x2="225" y2="70" stroke="#000" stroke-width="3.5" opacity=".8"/>
        <line x1="70" y1="275" x2="225" y2="70" stroke="#F6F7F8" stroke-width="3" opacity="1"/>
        <rect x="205" y="-20" width="115" height="115" stroke="#000" fill="#FFF" stroke-width="3"/>
        <rect x="225" y="-20" width="95" height="95" fill="#000"/>
        <g transform="translate(230,35)">
          <rect x="0" y="0" width="80" height="30" fill="#FFFFFF" stroke="#000" stroke-width="3" rx="5" ry="5"/>
          <text class="txt" x="8" y="20">Safe = 6</text>
        </g>
        <g transform="translate(140,-43)">
          <rect x="0" y="0" width="190" height="30" fill="#FFFFFF" stroke="#000" stroke-width="3" rx="5" ry="5"/>
          <text class="txt h2" x="8" y="21">Enlarged For Detail</text>
        </g>
        <g transform="translate(110,-45)">
          <rect class="pill" x="24" y="344" width="170" height="38" rx="18" ry="18"/>
          <text class="txt" x="45" y="369">View at Full Scale</text>
        </g>
        <g transform="translate(-1,-1)">
          <use href="#xhair_big"/>
        </g>
      </g>
</svg>